<svg width="22" height="17" viewBox="0 0 22 17" fill="none" xmlns="http://www.w3.org/2000/svg">
<path d="M21.4838 4.8125H18.9112L18.1963 3.025C17.4615 1.18723 15.7079 0 13.7284 0H8.27133C6.29219 0 4.5382 1.18723 3.80301 3.025L3.08801 4.8125H0.515898C0.180313 4.8125 -0.0658985 5.12789 0.0157422 5.45316L0.273555 6.48441C0.330703 6.71387 0.536953 6.875 0.773711 6.875H1.63609C1.05902 7.37902 0.687344 8.11164 0.687344 8.9375V11C0.687344 11.6927 0.952031 12.3179 1.37484 12.8017V15.125C1.37484 15.8843 1.99059 16.5 2.74984 16.5H4.12484C4.8841 16.5 5.49984 15.8843 5.49984 15.125V13.75H16.4998V15.125C16.4998 15.8843 17.1156 16.5 17.8748 16.5H19.2498C20.0091 16.5 20.6248 15.8843 20.6248 15.125V12.8017C21.0477 12.3183 21.3123 11.6931 21.3123 11V8.9375C21.3123 8.11164 20.9407 7.37902 20.364 6.875H21.2264C21.4632 6.875 21.6694 6.71387 21.7266 6.48441L21.9844 5.45316C22.0656 5.12789 21.8194 4.8125 21.4838 4.8125ZM6.35621 4.04637C6.66945 3.26348 7.42785 2.75 8.27133 2.75H13.7284C14.5718 2.75 15.3302 3.26348 15.6435 4.04637L16.4998 6.1875H5.49984L6.35621 4.04637ZM4.12484 10.9914C3.29984 10.9914 2.74984 10.4431 2.74984 9.6207C2.74984 8.79828 3.29984 8.25 4.12484 8.25C4.94984 8.25 6.18734 9.48363 6.18734 10.3061C6.18734 11.1285 4.94984 10.9914 4.12484 10.9914ZM17.8748 10.9914C17.0498 10.9914 15.8123 11.1285 15.8123 10.3061C15.8123 9.48363 17.0498 8.25 17.8748 8.25C18.6998 8.25 19.2498 8.79828 19.2498 9.6207C19.2498 10.4431 18.6998 10.9914 17.8748 10.9914Z" fill="black"/>
</svg>
