<svg width="18" height="18" viewBox="0 0 18 18" fill="none" xmlns="http://www.w3.org/2000/svg">
<path fill-rule="evenodd" clip-rule="evenodd" d="M9.00008 17.3333C13.6025 17.3333 17.3334 13.6024 17.3334 8.99999C17.3334 4.39762 13.6025 0.666656 9.00008 0.666656C4.39771 0.666656 0.666748 4.39762 0.666748 8.99999C0.666748 13.6024 4.39771 17.3333 9.00008 17.3333ZM14.2666 13.0881C15.1442 11.9592 15.6667 10.5406 15.6667 8.99999C15.6667 5.60031 13.122 2.79498 9.83341 2.3849V5.77167C11.2711 6.14171 12.3334 7.44679 12.3334 8.99999C12.3334 9.6182 12.1651 10.1971 11.8719 10.6934L14.2666 13.0881ZM13.088 14.2666L10.6933 11.8719C10.1971 12.1651 9.61822 12.3333 9.00008 12.3333C8.38194 12.3333 7.8031 12.1651 7.30685 11.8719L4.91212 14.2666C6.04101 15.1441 7.45952 15.6667 9.00008 15.6667C10.5406 15.6667 11.9592 15.1441 13.088 14.2666ZM5.66675 8.99999C5.66675 9.6182 5.83504 10.1971 6.12831 10.6934L3.73359 13.0881C2.856 11.9592 2.33341 10.5406 2.33341 8.99999C2.33341 5.60031 4.87815 2.79498 8.16675 2.3849V5.77167C6.72906 6.14171 5.66675 7.44679 5.66675 8.99999ZM9.00008 10.6667C9.92056 10.6667 10.6667 9.92046 10.6667 8.99999C10.6667 8.07952 9.92056 7.33332 9.00008 7.33332C8.07961 7.33332 7.33341 8.07952 7.33341 8.99999C7.33341 9.92046 8.07961 10.6667 9.00008 10.6667Z" fill="#72767C"/>
</svg>
